<?xml version="1.0" standalone="no"?>
<svg xmlns="http://www.w3.org/2000/svg" viewBox="0 0 138.16 52.84" width="138.16" height="52.84"><rect fill="none" stroke="#000000" stroke-width="4" width="134.16" height="48.84" x="2" y="2"></rect><g fill="#000000" color="#000000" transform="translate(12 12.095) scale(0.2913132)"><svg width="99.0" height="98.35" x="0.0" y="0.0" viewBox="0 0 99 98.35"><title></title><polygon points="39.6 68.87 42.82 68.87 59.4 29.5 56.18 29.5 39.6 68.87"></polygon><polygon points="66 29.5 66 34.14 81.13 49.17 66 64.21 66 68.84 85.8 49.17 66 29.5"></polygon><polygon points="33 68.84 33 64.21 17.87 49.17 33 34.14 33 29.5 13.2 49.17 33 68.84"></polygon></svg></g><path fill="#000000" fill-rule="nonzero" d="M0 1.32L0 0.44L20.80 0.44L21.20 8.36L20.48 8.36Q18.80 4.32 16.96 2.82Q15.12 1.32 11.56 1.32L11.56 1.32L10.16 1.32L10.16 13.68L11.52 13.68Q13.40 13.68 14.68 12.26Q15.96 10.84 16.48 8.44L16.48 8.44L17.08 8.44L17.08 20.28L16.40 20.28Q15.68 17.28 14.46 16Q13.24 14.72 11.12 14.72L11.12 14.72L10.16 14.72L10.16 27.56L11.68 27.56Q15.36 27.56 17.94 25.36Q20.52 23.16 21.48 19.72L21.48 19.72L22.28 19.72L21.96 28.44L0 28.44L0 27.56L2.36 27.56L2.36 1.32L0 1.32ZM24.96 1.32L24.96 0.44L39.36 0.44L39.36 1.32L35.12 1.32L35.12 27.56L36.56 27.56Q39.96 27.56 41.98 25.48Q44 23.40 46.08 19.08L46.08 19.08L46.92 19.08L46.16 28.44L24.96 28.44L24.96 27.56L27.32 27.56L27.32 1.32L24.96 1.32ZM60.96 28L60.96 28Q62.96 28 64.50 26.92Q66.04 25.84 66.04 23.66Q66.04 21.48 64.38 20.32Q62.72 19.16 59.66 18.30Q56.60 17.44 55.22 16.80Q53.84 16.16 52.60 15.12L52.60 15.12Q50.12 13.04 50.12 8.68L50.12 8.68Q50.12 5.12 52.66 2.56Q55.20 0 59.60 0L59.60 0Q61.72 0 64.02 0.62Q66.32 1.24 66.88 1.24Q67.44 1.24 67.88 0.44L67.88 0.44L68.32 0.44L68.60 8.52L67.96 8.52Q66.04 5.04 63.94 2.94Q61.84 0.84 59.38 0.84Q56.92 0.84 55.56 1.98Q54.20 3.12 54.20 5.02Q54.20 6.92 55.82 7.94Q57.44 8.96 59.80 9.60Q62.16 10.24 62.90 10.48Q63.64 10.72 64.74 11.14Q65.84 11.56 66.54 12.02Q67.24 12.48 68.02 13.18Q68.80 13.88 69.24 14.72L69.24 14.72Q70.32 16.64 70.32 19.28L70.32 19.28Q70.32 23.60 67.62 26.22Q64.92 28.84 60.52 28.84L60.52 28.84Q58.24 28.84 55.30 28.24Q52.36 27.64 52.04 27.64L52.04 27.64Q51.48 27.64 50.96 28.84L50.96 28.84L50.40 28.84L50 19.32L50.68 19.32Q52.44 22.80 55.18 25.40Q57.92 28 60.96 28Z" transform="translate(55.84 12.001) scale(1)"></path></svg>